<svg width="22" height="21" viewBox="0 0 22 21" fill="none" xmlns="http://www.w3.org/2000/svg">
<g clip-path="url(#clip0_19_9)">
<path d="M0 0H2V7H9V1H18C20.2 1 22 2.8 22 5V21H20V19H2V21H0V0ZM11 3V7H20V5C20 3.9 19.1 3 18 3H11ZM2 9V17H9V11H18C18.7 11 19.4 11.2 20 11.6V9H2ZM5.5 11C6.9 11 8 12.1 8 13.5C8 14.9 6.9 16 5.5 16C4.1 16 3 14.9 3 13.5C3 12.1 4.1 11 5.5 11ZM5.5 12.6C5 12.6 4.6 13 4.6 13.5C4.6 14 5 14.4 5.5 14.4C6 14.4 6.4 14 6.4 13.5C6.4 13 6 12.6 5.5 12.6ZM11 13V17H20V15C20 13.9 19.1 13 18 13H11ZM5.5 1C6.9 1 8 2.1 8 3.5C8 4.9 6.9 6 5.5 6C4.1 6 3 4.9 3 3.5C3 2.1 4.1 1 5.5 1ZM5.5 2.6C5 2.6 4.6 3 4.6 3.5C4.6 4 5 4.4 5.5 4.4C6 4.4 6.4 4 6.4 3.5C6.4 3 6 2.6 5.5 2.6Z" fill="#474747"/>
</g>
<defs>
<clipPath id="clip0_19_9">
<rect width="22" height="21" fill="white"/>
</clipPath>
</defs>
</svg>
