<svg width="20" height="16" viewBox="0 0 20 16" fill="none" xmlns="http://www.w3.org/2000/svg">
<path d="M2 16C1.45 16 0.979333 15.8043 0.588 15.413C0.196667 15.0217 0.000666667 14.5507 0 14V2C0 1.45 0.196 0.979333 0.588 0.588C0.98 0.196666 1.45067 0.000666667 2 0H18C18.55 0 19.021 0.196 19.413 0.588C19.805 0.98 20.0007 1.45067 20 2V14C20 14.55 19.8043 15.021 19.413 15.413C19.0217 15.805 18.5507 16.0007 18 16H2ZM2 14H12V2H2V14ZM14 14H18V2H14V14ZM15 5H17V3H15V5ZM16 9C16.2833 9 16.521 8.904 16.713 8.712C16.905 8.52 17.0007 8.28267 17 8C17 7.71667 16.904 7.47933 16.712 7.288C16.52 7.09667 16.2827 7.00067 16 7C15.7167 7 15.4793 7.096 15.288 7.288C15.0967 7.48 15.0007 7.71733 15 8C15 8.28333 15.096 8.521 15.288 8.713C15.48 8.905 15.7173 9.00067 16 9ZM16 13C16.2833 13 16.521 12.904 16.713 12.712C16.905 12.52 17.0007 12.2827 17 12C17 11.7167 16.904 11.4793 16.712 11.288C16.52 11.0967 16.2827 11.0007 16 11C15.7167 11 15.4793 11.096 15.288 11.288C15.0967 11.48 15.0007 11.7173 15 12C15 12.2833 15.096 12.521 15.288 12.713C15.48 12.905 15.7173 13.0007 16 13ZM8.25 12C7.85 12 7.50433 11.925 7.213 11.775C6.92167 11.625 6.66733 11.4833 6.45 11.35C6.28333 11.2333 6.15 11.146 6.05 11.088C5.95 11.03 5.85 11.0007 5.75 11C5.56667 11 5.38333 11.075 5.2 11.225C5.01667 11.375 4.88333 11.5 4.8 11.6L3.375 10.2C3.55833 10 3.85433 9.75 4.263 9.45C4.67167 9.15 5.16733 9 5.75 9C6.15 9 6.496 9.07933 6.788 9.238C7.08 9.39667 7.334 9.54233 7.55 9.675C7.7 9.775 7.83333 9.85433 7.95 9.913C8.06667 9.97167 8.16667 10.0007 8.25 10C8.43333 10 8.61667 9.925 8.8 9.775C8.98333 9.625 9.11667 9.5 9.2 9.4L10.625 10.8C10.4417 11 10.146 11.25 9.738 11.55C9.33 11.85 8.834 12 8.25 12ZM8.25 7C7.85 7 7.50433 6.925 7.213 6.775C6.92167 6.625 6.66733 6.48333 6.45 6.35C6.28333 6.23333 6.15 6.146 6.05 6.088C5.95 6.03 5.85 6.00067 5.75 6C5.56667 6 5.38333 6.075 5.2 6.225C5.01667 6.375 4.88333 6.5 4.8 6.6L3.375 5.2C3.55833 5 3.85433 4.75 4.263 4.45C4.67167 4.15 5.16733 4 5.75 4C6.15 4 6.496 4.07933 6.788 4.238C7.08 4.39667 7.334 4.54233 7.55 4.675C7.7 4.775 7.83333 4.85433 7.95 4.913C8.06667 4.97167 8.16667 5.00067 8.25 5C8.43333 5 8.61667 4.925 8.8 4.775C8.98333 4.625 9.11667 4.5 9.2 4.4L10.625 5.8C10.4417 6 10.146 6.25 9.738 6.55C9.33 6.85 8.834 7 8.25 7Z" fill="#474747"/>
</svg>
