<svg width="22" height="20" viewBox="0 0 22 20" fill="none" xmlns="http://www.w3.org/2000/svg">
<path d="M19.05 1.99999C18.8167 1.29999 18.1167 0.833328 17.4167 0.833328H4.58333C3.76667 0.833328 3.18333 1.29999 2.95 1.99999L0.5 8.99999V18.3333C0.5 18.9167 1.08333 19.5 1.66667 19.5H2.83333C3.53333 19.5 4 18.9167 4 18.3333V17.1667H18V18.3333C18 18.9167 18.5833 19.5 19.1667 19.5H20.3333C20.9167 19.5 21.5 18.9167 21.5 18.3333V8.99999L19.05 1.99999ZM4.93333 3.16666H16.95L18.2333 6.66666H3.76667L4.93333 3.16666ZM19.1667 14.8333H2.83333V8.99999H19.1667V14.8333ZM5.75 10.1667C6.68333 10.1667 7.5 10.9833 7.5 11.9167C7.5 12.85 6.68333 13.6667 5.75 13.6667C4.81667 13.6667 4 12.85 4 11.9167C4 10.9833 4.81667 10.1667 5.75 10.1667ZM16.25 10.1667C17.1833 10.1667 18 10.9833 18 11.9167C18 12.85 17.1833 13.6667 16.25 13.6667C15.3167 13.6667 14.5 12.85 14.5 11.9167C14.5 10.9833 15.3167 10.1667 16.25 10.1667Z" fill="#474747"/>
</svg>
