<svg width="72" height="13" viewBox="0 0 72 13" fill="none" xmlns="http://www.w3.org/2000/svg">
<path d="M2.295 12.7018L3.27 8.36427L0 5.44685L4.32 5.06095L6 0.970398L7.68 5.06095L12 5.44685L8.73 8.36427L9.705 12.7018L6 10.4018L2.295 12.7018Z" fill="#474747"/>
<path d="M17.295 12.7018L18.27 8.36427L15 5.44685L19.32 5.06095L21 0.970398L22.68 5.06095L27 5.44685L23.73 8.36427L24.705 12.7018L21 10.4018L17.295 12.7018Z" fill="#474747"/>
<path d="M32.295 12.7018L33.27 8.36427L30 5.44685L34.32 5.06095L36 0.970398L37.68 5.06095L42 5.44685L38.73 8.36427L39.705 12.7018L36 10.4018L32.295 12.7018Z" fill="#474747"/>
<path d="M47.295 12.7018L48.27 8.36427L45 5.44685L49.32 5.06095L51 0.970398L52.68 5.06095L57 5.44685L53.73 8.36427L54.705 12.7018L51 10.4018L47.295 12.7018Z" fill="#474747"/>
<path d="M62.295 12.7018L63.27 8.36427L60 5.44685L64.32 5.06095L66 0.970398L67.68 5.06095L72 5.44685L68.73 8.36427L69.705 12.7018L66 10.4018L62.295 12.7018Z" fill="#474747"/>
<path d="M62.295 12.7018L63.27 8.36427L60 5.44685L64.32 5.06095L66 0.970398L67.68 5.06095L72 5.44685L68.73 8.36427L69.705 12.7018L66 10.4018L62.295 12.7018Z" fill="#474747"/>
<path d="M67 11.0187V8.43584V7.36935V3.41583L67.68 5.061L72 5.44691L68.73 8.36432L69.705 12.7019L67 11.0187Z" fill="#474747"/>
<path d="M67 11.0187V8.43584V7.36935V3.41583L67.68 5.061L72 5.44691L68.73 8.36432L69.705 12.7019L67 11.0187Z" fill="white"/>
<path d="M67.5 7.36935V5.54692L67.6355 5.55902L70.8058 5.84222L68.3971 7.99123L68.1777 8.18702L68.2422 8.47398L68.9553 11.6465L67.5 10.741V8.43584V7.36935Z" stroke="#474747"/>
</svg>
