<svg width="20" height="23" viewBox="0 0 20 23" fill="none" xmlns="http://www.w3.org/2000/svg">
<g clip-path="url(#clip0_19_59)">
<path d="M9.1875 4.5C9.1875 4.71549 9.1019 4.92215 8.94952 5.07452C8.79715 5.2269 8.59049 5.3125 8.375 5.3125H6.75C6.53451 5.3125 6.32785 5.2269 6.17548 5.07452C6.0231 4.92215 5.9375 4.71549 5.9375 4.5C5.9375 4.28451 6.0231 4.07785 6.17548 3.92548C6.32785 3.7731 6.53451 3.6875 6.75 3.6875H8.375C8.59049 3.6875 8.79715 3.7731 8.94952 3.92548C9.1019 4.07785 9.1875 4.28451 9.1875 4.5ZM14.5013 18.022L14.8587 20.5205C14.8916 20.7509 14.8746 20.9858 14.8088 21.2091C14.7431 21.4324 14.6301 21.639 14.4775 21.8148C14.325 21.9907 14.1365 22.1317 13.9247 22.2283C13.7129 22.325 13.4828 22.375 13.25 22.375H6.75C6.5172 22.375 6.28712 22.325 6.07533 22.2283C5.86355 22.1317 5.675 21.9907 5.52245 21.8148C5.3699 21.639 5.25692 21.4324 5.19115 21.2091C5.12539 20.9858 5.10837 20.7509 5.14125 20.5205L5.49875 18.022C3.91732 17.1978 2.59196 15.9561 1.66662 14.4316C0.741277 12.9072 0.251332 11.1583 0.25 9.375C0.25 9.15951 0.335603 8.95285 0.487976 8.80048C0.640349 8.6481 0.847012 8.5625 1.0625 8.5625H2.6875V2.0625C2.6875 1.63152 2.8587 1.2182 3.16345 0.913451C3.4682 0.608705 3.88152 0.4375 4.3125 0.4375H15.6875C16.1185 0.4375 16.5318 0.608705 16.8365 0.913451C17.1413 1.2182 17.3125 1.63152 17.3125 2.0625V8.5625H18.9375C19.153 8.5625 19.3597 8.6481 19.512 8.80048C19.6644 8.95285 19.75 9.15951 19.75 9.375C19.7487 11.1583 19.2587 12.9072 18.3334 14.4316C17.408 15.9561 16.0827 17.1978 14.5013 18.022ZM4.3125 8.5625H15.6875V2.0625H4.3125V8.5625ZM12.9524 18.668C11.0313 19.2773 8.9687 19.2773 7.04758 18.668L6.75 20.75H13.25L12.9524 18.668ZM18.0844 10.1875H1.91563C2.11681 12.1918 3.05538 14.0499 4.54921 15.4013C6.04303 16.7527 7.98561 17.501 10 17.501C12.0144 17.501 13.957 16.7527 15.4508 15.4013C16.9446 14.0499 17.8832 12.1918 18.0844 10.1875Z" fill="#474747"/>
</g>
<defs>
<clipPath id="clip0_19_59">
<rect width="20" height="23" fill="white"/>
</clipPath>
</defs>
</svg>
