<svg width="23" height="21" viewBox="0 0 23 21" fill="none" xmlns="http://www.w3.org/2000/svg">
<path d="M21.92 0.885673C21.6553 0.620975 21.341 0.411133 20.9951 0.268182C20.6491 0.125232 20.2784 0.0519867 19.904 0.0526472C19.5297 0.0533078 19.1592 0.127861 18.8138 0.272032C18.4683 0.416202 18.1548 0.627152 17.891 0.892783L0.232361 19.0054C0.131188 19.1086 0.0593639 19.2369 0.0242924 19.3771C-0.0107791 19.5173 -0.00782864 19.6643 0.0328397 19.803C0.073508 19.9416 0.150423 20.0669 0.255654 20.166C0.360886 20.265 0.490627 20.3342 0.631502 20.3664C1.7971 20.6365 2.9897 20.7728 4.18619 20.7726C7.58041 20.7726 10.9787 19.6676 14.1728 17.5013C17.3974 15.3147 19.2662 12.8447 19.3444 12.74C19.4619 12.5836 19.5189 12.39 19.5051 12.1948C19.4913 11.9997 19.4076 11.8161 19.2692 11.6777L17.366 9.77239L21.9363 4.89739C22.4624 4.36132 22.7558 3.63932 22.7528 2.88819C22.7497 2.13706 22.4505 1.41747 21.92 0.885673ZM17.5945 12.3054C16.3067 13.7797 14.8353 15.0829 13.2161 16.183C9.71525 18.5443 6.10674 19.5041 2.46674 19.043L13.2628 7.9727L17.5945 12.3054ZM20.7713 3.76091L20.7531 3.7802L16.2122 8.62169L14.3973 6.80474L19.0468 2.0313C19.1602 1.91793 19.2948 1.828 19.4429 1.76665C19.591 1.70529 19.7498 1.67372 19.9101 1.67372C20.0704 1.67372 20.2292 1.70529 20.3773 1.76665C20.5254 1.828 20.66 1.91793 20.7734 2.0313C20.8867 2.14467 20.9767 2.27925 21.038 2.42738C21.0994 2.5755 21.131 2.73425 21.131 2.89458C21.131 3.05491 21.0994 3.21366 21.038 3.36178C20.9767 3.50991 20.8867 3.64449 20.7734 3.75786L20.7713 3.76091Z" fill="#474747"/>
</svg>
 