<svg width="20" height="20" viewBox="0 0 20 20" fill="none" xmlns="http://www.w3.org/2000/svg">
<path d="M18.916 7.56399C18.9688 7.44391 18.9975 7.31459 19.0003 7.18343C19.0031 7.05228 18.98 6.92186 18.9323 6.79963C18.8847 6.6774 18.8134 6.56576 18.7226 6.47111C18.6318 6.37645 18.5232 6.30063 18.403 6.24799L5.328 0.491987C4.333 0.0539871 3.108 0.542987 2.683 1.53399L0.473 6.68799C0.265088 7.17551 0.259088 7.72561 0.456316 8.21756C0.653544 8.7095 1.03789 9.10311 1.525 9.31199L7.563 11.9L6.323 15H2V12H0V20H2V17H6.323C7.146 17 7.875 16.506 8.179 15.742L9.401 12.688L14.606 14.918C14.8484 15.022 15.1221 15.026 15.3674 14.9292C15.6128 14.8324 15.81 14.6425 15.916 14.401L16.228 13.691L17.929 14.371L19.929 9.37099L18.393 8.75799L18.916 7.56399ZM14.482 12.69L2.313 7.47499L4.521 2.32299L16.683 7.67699L14.482 12.69Z" fill="#474747"/>
</svg>
