<svg width="20" height="22" viewBox="0 0 20 22" fill="none" xmlns="http://www.w3.org/2000/svg">
<g clip-path="url(#clip0_19_34)">
<path d="M4 21V20M16 21V20" stroke="#474747" stroke-width="1.5" stroke-linecap="round"/>
<path d="M1 9C1 5.229 1 3.343 2.172 2.172C3.343 1 5.229 1 9 1H11C14.771 1 16.657 1 17.828 2.172C19 3.343 19 5.229 19 9V12C19 15.771 19 17.657 17.828 18.828C16.657 20 14.771 20 11 20H9C5.229 20 3.343 20 2.172 18.828C1 17.657 1 15.771 1 12V9Z" stroke="#474747" stroke-width="1.5"/>
<path d="M1 8H19" stroke="#474747" stroke-width="1.5" stroke-linecap="round"/>
<path d="M13 14C13 14.7956 12.6839 15.5587 12.1213 16.1213C11.5587 16.6839 10.7956 17 10 17C9.20435 17 8.44129 16.6839 7.87868 16.1213C7.31607 15.5587 7 14.7956 7 14C7 13.2044 7.31607 12.4413 7.87868 11.8787C8.44129 11.3161 9.20435 11 10 11C10.7956 11 11.5587 11.3161 12.1213 11.8787C12.6839 12.4413 13 13.2044 13 14Z" stroke="#474747" stroke-width="1.5"/>
<path d="M4.5 4.5H7.5" stroke="#474747" stroke-width="1.5" stroke-linecap="round"/>
<path d="M13.5 4.5C13.5 4.76522 13.3946 5.01957 13.2071 5.20711C13.0196 5.39464 12.7652 5.5 12.5 5.5C12.2348 5.5 11.9804 5.39464 11.7929 5.20711C11.6054 5.01957 11.5 4.76522 11.5 4.5C11.5 4.23478 11.6054 3.98043 11.7929 3.79289C11.9804 3.60536 12.2348 3.5 12.5 3.5C12.7652 3.5 13.0196 3.60536 13.2071 3.79289C13.3946 3.98043 13.5 4.23478 13.5 4.5ZM16.5 4.5C16.5 4.76522 16.3946 5.01957 16.2071 5.20711C16.0196 5.39464 15.7652 5.5 15.5 5.5C15.2348 5.5 14.9804 5.39464 14.7929 5.20711C14.6054 5.01957 14.5 4.76522 14.5 4.5C14.5 4.23478 14.6054 3.98043 14.7929 3.79289C14.9804 3.60536 15.2348 3.5 15.5 3.5C15.7652 3.5 16.0196 3.60536 16.2071 3.79289C16.3946 3.98043 16.5 4.23478 16.5 4.5Z" fill="#474747"/>
</g>
<defs>
<clipPath id="clip0_19_34">
<rect width="20" height="22" fill="white"/>
</clipPath>
</defs>
</svg>
