<svg width="38" height="38" viewBox="0 0 38 38" fill="none" xmlns="http://www.w3.org/2000/svg">
<path d="M26.7774 26.3071C28.2754 24.1623 29.078 21.6089 29.0766 18.9928C29.0752 16.3767 28.2698 13.8242 26.7694 11.681M25.3397 9.97974C23.5556 8.19559 21.2826 6.98054 18.8079 6.48825C16.3333 5.99596 13.7683 6.24855 11.4372 7.21407C9.10617 8.17959 7.11377 9.81468 5.71199 11.9126C4.31021 14.0104 3.56201 16.4769 3.56201 19C3.56201 21.5231 4.31021 23.9896 5.71199 26.0874C7.11377 28.1853 9.10617 29.8204 11.4372 30.7859C13.7683 31.7514 16.3333 32.004 18.8079 31.5117C21.2826 31.0195 23.5556 29.8044 25.3397 28.0202" stroke="black" stroke-width="3" stroke-linecap="round" stroke-linejoin="round"/>
<path d="M20.9483 13.3974C19.6749 12.3453 18.081 11.7584 16.4294 11.7334C14.7778 11.7084 13.167 12.2467 11.8623 13.2598C10.5576 14.2728 9.63695 15.7 9.252 17.3063C8.86705 18.9127 9.04078 20.6022 9.74456 22.0965C10.4484 23.5909 11.6402 24.8009 13.1237 25.5273C14.6073 26.2536 16.294 26.4529 17.9059 26.0923C19.5179 25.7317 20.9589 24.8327 21.9916 23.5435C23.0242 22.2543 23.5869 20.6518 23.5869 19H17.2013M31.1726 29.3779C33.2996 26.3314 34.4392 22.705 34.4371 18.9894C34.4349 15.2739 33.2912 11.6487 31.1608 8.60461" stroke="black" stroke-width="3" stroke-linecap="round" stroke-linejoin="round"/>
</svg>
