<svg width="63" height="63" viewBox="0 0 63 63" fill="none" xmlns="http://www.w3.org/2000/svg">
<g clip-path="url(#clip0_103_621)">
<path d="M58.3327 41.391L57.7421 38.4379H51.1429L50.0929 41.37L44.8035 41.3805C48.2029 33.2089 50.7281 27.1583 52.374 23.2234C52.8045 22.1944 53.5684 21.6694 54.6945 21.6773C55.5555 21.6851 56.9599 21.6851 58.9102 21.6799L63 41.3831L58.3327 41.391ZM52.626 34.3928H56.8811L55.293 26.9903L52.626 34.3928ZM18.5378 21.6746L23.856 21.6799L15.6345 41.3936L10.2506 41.3884C8.89678 36.1812 7.55978 30.9697 6.23963 25.7539C5.97713 24.7144 5.45738 23.9873 4.45725 23.6434C2.97817 23.1493 1.49227 22.6759 0 22.2233L0 21.6799H8.49712C9.96712 21.6799 10.8255 22.3913 11.1011 23.8508C11.3794 25.3129 12.0776 29.0378 13.2011 35.0175L18.5378 21.6746ZM31.164 21.6799L26.9614 41.391L21.8978 41.3831L26.0925 21.6746L31.164 21.6799ZM41.4277 21.315C42.9424 21.315 44.8507 21.7875 45.948 22.2233L45.0608 26.3078C44.0685 25.9088 42.4357 25.3706 41.0629 25.389C39.0679 25.4231 37.8341 26.2605 37.8341 27.0638C37.8341 28.371 39.9761 29.0299 42.1811 30.4579C44.6959 32.0854 45.0293 33.5475 44.9977 35.1383C44.9636 38.4326 42.1811 41.685 36.3116 41.685C33.6341 41.6456 32.6681 41.4225 30.4841 40.6455L31.4081 36.3825C33.6315 37.3118 34.5739 37.6084 36.4744 37.6084C38.2148 37.6084 39.7084 36.9049 39.7215 35.679C39.732 34.8075 39.1965 34.3744 37.2435 33.2981C35.2905 32.2193 32.55 30.7283 32.5868 27.7279C32.6314 23.8901 36.267 21.315 41.4277 21.315Z" fill="black"/>
</g>
<defs>
<clipPath id="clip0_103_621">
<rect width="63" height="63" fill="white"/>
</clipPath>
</defs>
</svg>
